<svg viewBox="0 0 1000 700" xmlns="http://www.w3.org/2000/svg">
<path id="p0" d="M 355.3,422.6 L 378.9,375.4 L 372.2,364.8 L 310.9,346.8 L 307.1,356.0 L 305.0,372.6 L 306.6,389.2 L 310.8,405.3 L 316.2,420.9 L 320.3,432.4 Z" fill="#cccccc" stroke="#444444" stroke-width="1"/>
<path id="p1" d="M 435.9,341.7 L 418.3,310.6 L 391.1,305.4 L 372.2,364.8 L 378.9,375.4 L 396.1,378.3 L 428.2,362.0 Z" fill="#cccccc" stroke="#444444" stroke-width="1"/>
<path id="p2" d="M 492.7,310.3 L 478.4,282.2 L 461.5,274.8 L 418.3,310.6 L 435.9,341.7 L 471.9,339.9 Z" fill="#cccccc" stroke="#444444" stroke-width="1"/>
<path id="p3" d="M 391.1,305.4 L 418.3,310.6 L 461.5,274.8 L 446.0,242.6 L 400.8,222.9 L 397.8,231.6 L 393.8,250.1 L 390.3,266.4 L 385.5,279.4 L 377.9,289.5 L 377.3,290.0 Z" fill="#cccccc" stroke="#444444" stroke-width="1"/>
<path id="p4" d="M 396.1,378.3 L 378.9,375.4 L 355.3,422.6 L 398.2,451.0 L 422.0,419.5 Z" fill="#cccccc" stroke="#444444" stroke-width="1"/>
<path id="p5" d="M 550.0,485.0 L 595.9,493.4 L 600.3,419.1 L 581.0,407.3 L 535.2,442.6 Z" fill="#cccccc" stroke="#444444" stroke-width="1"/>
<path id="p6" d="M 561.8,250.2 L 567.6,290.1 L 609.0,323.5 L 654.3,320.2 L 653.6,315.4 L 652.0,300.1 L 650.9,283.5 L 649.7,265.3 L 647.6,245.8 L 643.3,225.8 L 636.0,206.4 L 631.1,198.8 Z" fill="#cccccc" stroke="#444444" stroke-width="1"/>
<path id="p7" d="M 428.2,362.0 L 396.1,378.3 L 422.0,419.5 L 447.4,415.8 L 454.9,390.9 Z" fill="#cccccc" stroke="#444444" stroke-width="1"/>
<path id="p8" d="M 503.3,189.2 L 446.0,242.6 L 461.5,274.8 L 478.4,282.2 L 534.3,238.6 Z" fill="#cccccc" stroke="#444444" stroke-width="1"/>
<path id="p9" d="M 447.4,415.8 L 422.0,419.5 L 398.2,451.0 L 403.4,474.7 L 432.8,485.1 L 471.2,440.4 Z" fill="#cccccc" stroke="#444444" stroke-width="1"/>
<path id="p10" d="M 377.3,290.0 L 367.0,297.8 L 353.2,305.8 L 338.4,315.0 L 324.5,326.5 L 313.7,340.3 L 310.9,346.8 L 372.2,364.8 L 391.1,305.4 Z" fill="#cccccc" stroke="#444444" stroke-width="1"/>
<path id="p11" d="M 631.1,198.8 L 624.9,189.2 L 610.3,175.6 L 592.8,166.2 L 573.6,160.9 L 553.8,158.8 L 534.2,158.7 L 515.2,159.4 L 502.3,160.0 L 503.3,189.2 L 534.3,238.6 L 561.8,250.2 Z" fill="#cccccc" stroke="#444444" stroke-width="1"/>
<path id="p12" d="M 428.0,573.4 L 441.5,577.8 L 459.8,581.0 L 478.3,581.1 L 496.5,578.3 L 514.1,572.9 L 530.2,565.8 L 513.6,518.6 L 495.0,509.5 L 453.0,514.2 Z" fill="#cccccc" stroke="#444444" stroke-width="1"/>
<path id="p13" d="M 600.3,419.1 L 661.7,413.5 L 662.0,401.7 L 661.8,387.0 L 661.0,372.6 L 659.7,358.3 L 657.8,344.1 L 655.6,329.9 L 654.3,320.2 L 609.0,323.5 L 571.9,380.9 L 581.0,407.3 Z" fill="#cccccc" stroke="#444444" stroke-width="1"/>
<path id="p14" d="M 503.3,189.2 L 502.3,160.0 L 496.5,160.3 L 478.1,161.8 L 459.9,165.0 L 442.5,171.1 L 426.8,181.1 L 413.8,195.2 L 404.2,212.6 L 400.8,222.9 L 446.0,242.6 Z" fill="#cccccc" stroke="#444444" stroke-width="1"/>
<path id="p15" d="M 471.2,440.4 L 432.8,485.1 L 453.0,514.2 L 495.0,509.5 L 492.4,442.0 Z" fill="#cccccc" stroke="#444444" stroke-width="1"/>
<path id="p16" d="M 495.0,509.5 L 513.6,518.6 L 550.0,485.0 L 535.2,442.6 L 504.6,435.1 L 492.4,442.0 Z" fill="#cccccc" stroke="#444444" stroke-width="1"/>
<path id="p17" d="M 471.9,339.9 L 435.9,341.7 L 428.2,362.0 L 454.9,390.9 L 485.5,376.0 Z" fill="#cccccc" stroke="#444444" stroke-width="1"/>
<path id="p18" d="M 523.7,320.4 L 567.6,290.1 L 561.8,250.2 L 534.3,238.6 L 478.4,282.2 L 492.7,310.3 Z" fill="#cccccc" stroke="#444444" stroke-width="1"/>
<path id="p19" d="M 504.6,383.4 L 533.3,366.9 L 523.7,320.4 L 492.7,310.3 L 471.9,339.9 L 485.5,376.0 Z" fill="#cccccc" stroke="#444444" stroke-width="1"/>
<path id="p20" d="M 355.3,422.6 L 320.3,432.4 L 321.7,436.2 L 326.9,451.6 L 332.3,467.4 L 338.2,483.5 L 345.3,499.4 L 354.2,514.9 L 355.3,516.3 L 403.4,474.7 L 398.2,451.0 Z" fill="#cccccc" stroke="#444444" stroke-width="1"/>
<path id="p21" d="M 504.6,435.1 L 504.6,383.4 L 485.5,376.0 L 454.9,390.9 L 447.4,415.8 L 471.2,440.4 L 492.4,442.0 Z" fill="#cccccc" stroke="#444444" stroke-width="1"/>
<path id="p22" d="M 581.0,407.3 L 571.9,380.9 L 533.3,366.9 L 504.6,383.4 L 504.6,435.1 L 535.2,442.6 Z" fill="#cccccc" stroke="#444444" stroke-width="1"/>
<path id="p23" d="M 595.9,493.4 L 550.0,485.0 L 513.6,518.6 L 530.2,565.8 L 530.6,565.6 L 546.0,557.3 L 560.7,548.8 L 574.9,540.6 L 588.9,532.5 L 602.8,524.3 L 616.0,515.3 Z" fill="#cccccc" stroke="#444444" stroke-width="1"/>
<path id="p24" d="M 600.3,419.1 L 595.9,493.4 L 616.0,515.3 L 616.2,515.2 L 628.6,504.7 L 639.4,492.4 L 647.9,478.6 L 654.1,463.6 L 658.2,447.9 L 660.5,432.2 L 661.6,416.8 L 661.7,413.5 Z" fill="#cccccc" stroke="#444444" stroke-width="1"/>
<path id="p25" d="M 571.9,380.9 L 609.0,323.5 L 567.6,290.1 L 523.7,320.4 L 533.3,366.9 Z" fill="#cccccc" stroke="#444444" stroke-width="1"/>
<path id="p26" d="M 403.4,474.7 L 355.3,516.3 L 365.0,529.3 L 377.6,542.5 L 391.7,554.1 L 407.3,564.0 L 423.9,572.0 L 428.0,573.4 L 453.0,514.2 L 432.8,485.1 Z" fill="#cccccc" stroke="#444444" stroke-width="1"/>
</svg>